<svg xmlns="http://www.w3.org/2000/svg" width="19" height="19" viewBox="0 0 19 19" fill="none">
  <path d="M10.4121 4.91016H4.57712C3.29462 4.91016 2.24463 5.96015 2.24463 7.24265V15.7627C2.24463 16.8502 3.02463 17.3151 3.97713 16.7826L6.92462 15.1401C7.23962 14.9676 7.74963 14.9676 8.05713 15.1401L11.0046 16.7826C11.9571 17.3151 12.7371 16.8502 12.7371 15.7627V7.24265C12.7446 5.96015 11.6946 4.91016 10.4121 4.91016Z" stroke="#585858" stroke-width="1.07812" stroke-linecap="round" stroke-linejoin="round"/>
  <path d="M12.7446 7.24265V15.7627C12.7446 16.8502 11.9646 17.3076 11.0121 16.7826L8.06464 15.1401C7.74964 14.9676 7.23962 14.9676 6.92462 15.1401L3.97713 16.7826C3.02463 17.3076 2.24463 16.8502 2.24463 15.7627V7.24265C2.24463 5.96015 3.29462 4.91016 4.57712 4.91016H10.4121C11.6946 4.91016 12.7446 5.96015 12.7446 7.24265Z" stroke="#585858" stroke-width="1.07812" stroke-linecap="round" stroke-linejoin="round"/>
  <path d="M17.2446 4.33249V12.8525C17.2446 13.94 16.4646 14.3975 15.5121 13.8725L12.7446 12.3275V7.24249C12.7446 5.95999 11.6946 4.91 10.4121 4.91H6.74463V4.33249C6.74463 3.04999 7.79462 2 9.07712 2H14.9121C16.1946 2 17.2446 3.04999 17.2446 4.33249Z" stroke="#585858" stroke-width="1.07812" stroke-linecap="round" stroke-linejoin="round"/>
</svg>