<svg xmlns="http://www.w3.org/2000/svg" width="14" height="14" viewBox="0 0 14 14" fill="none">
  <path d="M5.25008 12.8334H8.75008C11.6667 12.8334 12.8334 11.6667 12.8334 8.75008V5.25008C12.8334 2.33341 11.6667 1.16675 8.75008 1.16675H5.25008C2.33341 1.16675 1.16675 2.33341 1.16675 5.25008V8.75008C1.16675 11.6667 2.33341 12.8334 5.25008 12.8334Z" stroke="#34333E" stroke-width="0.9375" stroke-linecap="round" stroke-linejoin="round"/>
  <path d="M5.25016 5.83333C5.89449 5.83333 6.41683 5.311 6.41683 4.66667C6.41683 4.02233 5.89449 3.5 5.25016 3.5C4.60583 3.5 4.0835 4.02233 4.0835 4.66667C4.0835 5.311 4.60583 5.83333 5.25016 5.83333Z" stroke="#34333E" stroke-width="0.9375" stroke-linecap="round" stroke-linejoin="round"/>
  <path d="M1.55737 11.0542L4.43321 9.12333C4.89404 8.81416 5.55904 8.84916 5.97321 9.20499L6.16571 9.37416C6.62071 9.76499 7.35571 9.76499 7.81071 9.37416L10.2374 7.29166C10.6924 6.90083 11.4274 6.90083 11.8824 7.29166L12.8332 8.10833" stroke="#34333E" stroke-width="0.9375" stroke-linecap="round" stroke-linejoin="round"/>
</svg>